<svg width="739" height="138" viewBox="0 0 739 138" fill="none" xmlns="http://www.w3.org/2000/svg">
<path d="M51.6357 25.959V26.959H52.6357V25.959H51.6357ZM31.0693 25.959V24.959H30.0693V25.959H31.0693ZM31.0693 83V84H32.0693V83H31.0693ZM22.6758 83H21.6758V84H22.6758V83ZM22.6758 25.959H23.6758V24.959H22.6758V25.959ZM2.15332 25.959H1.15332V26.959H2.15332V25.959ZM2.15332 19.0156V18.0156H1.15332V19.0156H2.15332ZM51.6357 19.0156H52.6357V18.0156H51.6357V19.0156ZM51.6357 24.959H31.0693V26.959H51.6357V24.959ZM30.0693 25.959V83H32.0693V25.959H30.0693ZM31.0693 82H22.6758V84H31.0693V82ZM23.6758 83V25.959H21.6758V83H23.6758ZM22.6758 24.959H2.15332V26.959H22.6758V24.959ZM3.15332 25.959V19.0156H1.15332V25.959H3.15332ZM2.15332 20.0156H51.6357V18.0156H2.15332V20.0156ZM50.6357 19.0156V25.959H52.6357V19.0156H50.6357ZM92.9443 66.3008L93.8835 65.9573L93.6433 65.3008H92.9443V66.3008ZM66.1377 66.3008V65.3008H65.4352L65.197 65.9616L66.1377 66.3008ZM60.1172 83V84H60.8197L61.0579 83.3392L60.1172 83ZM51.416 83L50.4818 82.6433L49.9637 84H51.416V83ZM75.8496 19.0156V18.0156H75.161L74.9154 18.6589L75.8496 19.0156ZM83.2324 19.0156L84.1664 18.6583L83.9205 18.0156H83.2324V19.0156ZM107.71 83V84H109.163L108.644 82.6427L107.71 83ZM99.0527 83L98.1136 83.3435L98.3537 84H99.0527V83ZM68.6865 59.3574L67.7464 59.0165L67.2601 60.3574H68.6865V59.3574ZM90.4395 59.3574V60.3574H91.8679L91.3791 59.0152L90.4395 59.3574ZM79.541 29.4307L80.4806 29.0885L79.5391 26.5031L78.6009 29.0897L79.541 29.4307ZM92.9443 65.3008H66.1377V67.3008H92.9443V65.3008ZM65.197 65.9616L59.1765 82.6608L61.0579 83.3392L67.0784 66.6399L65.197 65.9616ZM60.1172 82H51.416V84H60.1172V82ZM52.3502 83.3567L76.7838 19.3724L74.9154 18.6589L50.4818 82.6433L52.3502 83.3567ZM75.8496 20.0156H83.2324V18.0156H75.8496V20.0156ZM82.2984 19.3729L106.776 83.3573L108.644 82.6427L84.1664 18.6583L82.2984 19.3729ZM107.71 82H99.0527V84H107.71V82ZM99.9919 82.6565L93.8835 65.9573L92.0052 66.6443L98.1136 83.3435L99.9919 82.6565ZM68.6865 60.3574H90.4395V58.3574H68.6865V60.3574ZM91.3791 59.0152L80.4806 29.0885L78.6014 29.7729L89.4998 59.6996L91.3791 59.0152ZM78.6009 29.0897L67.7464 59.0165L69.6266 59.6984L80.4811 29.7716L78.6009 29.0897ZM124.761 57.9512V56.9512H123.761V57.9512H124.761ZM124.761 83V84H125.761V83H124.761ZM116.323 83H115.323V84H116.323V83ZM116.323 19.0156V18.0156H115.323V19.0156H116.323ZM156.357 24.377L155.687 25.1189L155.69 25.1213L156.357 24.377ZM156.489 52.9414L157.143 53.6982L157.143 53.6978L156.489 52.9414ZM124.761 51.0518H123.761V52.0518H124.761V51.0518ZM150.293 47.8877L150.953 48.6392L150.958 48.6346L150.293 47.8877ZM140.405 25.959L140.426 24.9592L140.416 24.959H140.405V25.959ZM124.761 25.959V24.959H123.761V25.959H124.761ZM123.761 57.9512V83H125.761V57.9512H123.761ZM124.761 82H116.323V84H124.761V82ZM117.323 83V19.0156H115.323V83H117.323ZM116.323 20.0156H139.922V18.0156H116.323V20.0156ZM139.922 20.0156C146.756 20.0156 151.967 21.7573 155.687 25.1189L157.028 23.635C152.838 19.8482 147.092 18.0156 139.922 18.0156V20.0156ZM155.69 25.1213C159.44 28.4856 161.334 32.9349 161.334 38.5713H163.334C163.334 32.4304 161.244 27.4167 157.025 23.6326L155.69 25.1213ZM161.334 38.5713C161.334 44.5572 159.467 49.0447 155.835 52.185L157.143 53.6978C161.305 50.0998 163.334 45.0072 163.334 38.5713H161.334ZM155.836 52.1846C152.213 55.3132 146.929 56.9512 139.834 56.9512V58.9512C147.212 58.9512 153.031 57.2493 157.143 53.6982L155.836 52.1846ZM139.834 56.9512H124.761V58.9512H139.834V56.9512ZM124.761 52.0518H139.922V50.0518H124.761V52.0518ZM139.922 52.0518C144.577 52.0518 148.305 50.9639 150.953 48.6391L149.633 47.1363C147.476 49.0303 144.29 50.0518 139.922 50.0518V52.0518ZM150.958 48.6346C153.624 46.2608 154.896 42.882 154.896 38.6592H152.896C152.896 42.4637 151.766 45.2372 149.628 47.1408L150.958 48.6346ZM154.896 38.6592C154.896 34.6212 153.613 31.2966 150.982 28.794L149.604 30.2431C151.778 32.3109 152.896 35.0799 152.896 38.6592H154.896ZM150.982 28.794C148.355 26.2951 144.797 25.0509 140.426 24.9592L140.384 26.9588C144.393 27.0429 147.426 28.1717 149.604 30.2431L150.982 28.794ZM140.405 24.959H124.761V26.959H140.405V24.959ZM123.761 25.959V51.0518H125.761V25.959H123.761ZM213.442 19.0156V18.0156H212.895L212.6 18.4771L213.442 19.0156ZM221.88 19.0156H222.88V18.0156H221.88V19.0156ZM221.88 83V84H222.88V83H221.88ZM213.442 83H212.442V84H213.442V83ZM213.442 33.6934H214.442V30.2714L212.6 33.1549L213.442 33.6934ZM181.934 83V84H182.481L182.776 83.5385L181.934 83ZM173.452 83H172.452V84H173.452V83ZM173.452 19.0156V18.0156H172.452V19.0156H173.452ZM181.934 19.0156H182.934V18.0156H181.934V19.0156ZM181.934 68.3223H180.934V71.7442L182.776 68.8607L181.934 68.3223ZM213.442 20.0156H221.88V18.0156H213.442V20.0156ZM220.88 19.0156V83H222.88V19.0156H220.88ZM221.88 82H213.442V84H221.88V82ZM214.442 83V33.6934H212.442V83H214.442ZM212.6 33.1549L181.091 82.4615L182.776 83.5385L214.285 34.2318L212.6 33.1549ZM181.934 82H173.452V84H181.934V82ZM174.452 83V19.0156H172.452V83H174.452ZM173.452 20.0156H181.934V18.0156H173.452V20.0156ZM180.934 19.0156V68.3223H182.934V19.0156H180.934ZM182.776 68.8607L214.285 19.5541L212.6 18.4771L181.091 67.7838L182.776 68.8607ZM268.857 25.4316H267.857V26.4316H268.857V25.4316ZM270.22 25.4316L270.226 24.4316H270.22V25.4316ZM292.72 38.0439L291.847 38.5324L291.851 38.5401L292.72 38.0439ZM283.491 73.6396L283.98 74.5123L283.985 74.5095L283.491 73.6396ZM270.396 77.0234V78.0235L270.408 78.0234L270.396 77.0234ZM268.857 77.0234V76.0234H267.857V77.0234H268.857ZM268.857 85.6367V86.6367H269.857V85.6367H268.857ZM260.684 85.6367H259.684V86.6367H260.684V85.6367ZM260.684 77.0234H261.684V76.0234H260.684V77.0234ZM246.094 73.6836L245.606 74.5565L245.609 74.5581L246.094 73.6836ZM236.777 64.4551L235.905 64.9435L235.908 64.9484L236.777 64.4551ZM236.777 38L235.907 37.5067L235.905 37.5116L236.777 38ZM246.094 28.7715L245.609 27.897L245.606 27.8985L246.094 28.7715ZM260.684 25.4316V26.4316H261.684V25.4316H260.684ZM260.684 16.3789V15.3789H259.684V16.3789H260.684ZM268.857 16.3789H269.857V15.3789H268.857V16.3789ZM246.357 37.165L245.632 36.4769L245.632 36.4771L246.357 37.165ZM246.357 65.334L245.632 66.0219L245.635 66.0251L246.357 65.334ZM260.684 70.3438V71.3438H261.684V70.3438H260.684ZM260.684 32.0674H261.684V31.0674H260.684V32.0674ZM268.857 32.0674V31.0674H267.857V32.0674H268.857ZM268.857 70.3438H267.857V71.3438H268.857V70.3438ZM283.184 65.2021L282.446 64.527L282.446 64.5273L283.184 65.2021ZM283.184 37.209L282.446 37.8839L282.449 37.8873L283.184 37.209ZM268.857 26.4316H270.22V24.4316H268.857V26.4316ZM270.214 26.4316C274.889 26.46 279.131 27.549 282.959 29.6884L283.935 27.9425C279.795 25.6287 275.218 24.4619 270.226 24.4317L270.214 26.4316ZM282.959 29.6884C286.785 31.8262 289.741 34.7703 291.847 38.5323L293.592 37.5555C291.303 33.466 288.078 30.2578 283.935 27.9425L282.959 29.6884ZM291.851 38.5401C293.985 42.2739 295.06 46.4658 295.06 51.1396H297.06C297.06 46.1455 295.908 41.607 293.588 37.5478L291.851 38.5401ZM295.06 51.1396C295.06 55.8438 293.985 60.082 291.848 63.8766L293.591 64.8578C295.908 60.7422 297.06 56.1621 297.06 51.1396H295.06ZM291.848 63.8766C289.71 67.6742 286.765 70.6335 282.998 72.7698L283.985 74.5095C288.069 72.1927 291.276 68.9703 293.591 64.8578L291.848 63.8766ZM283.003 72.767C279.233 74.8773 275.033 75.9668 270.383 76.0235L270.408 78.0234C275.368 77.9629 279.898 76.7966 283.98 74.5123L283.003 72.767ZM270.396 76.0234H268.857V78.0234H270.396V76.0234ZM267.857 77.0234V85.6367H269.857V77.0234H267.857ZM268.857 84.6367H260.684V86.6367H268.857V84.6367ZM261.684 85.6367V77.0234H259.684V85.6367H261.684ZM260.684 76.0234H259.453V78.0234H260.684V76.0234ZM259.453 76.0234C254.719 76.0234 250.434 74.9479 246.579 72.8091L245.609 74.5581C249.781 76.8724 254.402 78.0234 259.453 78.0234V76.0234ZM246.582 72.8107C242.755 70.6722 239.782 67.7265 237.647 63.9617L235.908 64.9484C238.225 69.0352 241.464 72.2418 245.606 74.5565L246.582 72.8107ZM237.65 63.9667C235.543 60.203 234.481 55.9645 234.481 51.2275H232.481C232.481 56.2758 233.617 60.8556 235.905 64.9435L237.65 63.9667ZM234.481 51.2275C234.481 46.4906 235.543 42.2521 237.65 38.4884L235.905 37.5116C233.617 41.5995 232.481 46.1793 232.481 51.2275H234.481ZM237.647 38.4933C239.782 34.7285 242.755 31.7828 246.582 29.6444L245.606 27.8985C241.464 30.2133 238.225 33.4199 235.908 37.5067L237.647 38.4933ZM246.579 29.6459C250.434 27.5071 254.719 26.4316 259.453 26.4316V24.4316C254.402 24.4316 249.781 25.5827 245.609 27.897L246.579 29.6459ZM259.453 26.4316H260.684V24.4316H259.453V26.4316ZM261.684 25.4316V16.3789H259.684V25.4316H261.684ZM260.684 17.3789H268.857V15.3789H260.684V17.3789ZM267.857 16.3789V25.4316H269.857V16.3789H267.857ZM259.453 31.0674C253.723 31.0674 249.077 32.8443 245.632 36.4769L247.083 37.8531C250.084 34.6889 254.167 33.0674 259.453 33.0674V31.0674ZM245.632 36.4771C242.215 40.0817 240.567 45.0436 240.567 51.2275H242.567C242.567 45.3998 244.113 40.9866 247.083 37.853L245.632 36.4771ZM240.567 51.2275C240.567 57.4392 242.214 62.4164 245.632 66.0219L247.083 64.6461C244.114 61.5133 242.567 57.0862 242.567 51.2275H240.567ZM245.635 66.0251C249.056 69.6029 253.734 71.3438 259.541 71.3438V69.3438C254.156 69.3438 250.046 67.7448 247.08 64.6429L245.635 66.0251ZM259.541 71.3438H260.684V69.3438H259.541V71.3438ZM261.684 70.3438V32.0674H259.684V70.3438H261.684ZM260.684 31.0674H259.453V33.0674H260.684V31.0674ZM267.857 32.0674V70.3438H269.857V32.0674H267.857ZM268.857 71.3438H270.088V69.3438H268.857V71.3438ZM270.088 71.3438C275.902 71.3438 280.559 69.5538 283.922 65.877L282.446 64.5273C279.539 67.706 275.465 69.3438 270.088 69.3438V71.3438ZM283.921 65.8773C287.295 62.1911 288.93 57.2393 288.93 51.1396H286.93C286.93 56.8759 285.4 61.2991 282.446 64.527L283.921 65.8773ZM288.93 51.1396C288.93 45.096 287.294 40.1872 283.918 36.5307L282.449 37.8873C285.402 41.0863 286.93 45.4646 286.93 51.1396H288.93ZM283.922 36.5341C280.555 32.853 275.836 31.0674 269.912 31.0674V33.0674C275.414 33.0674 279.543 34.7095 282.446 37.8839L283.922 36.5341ZM269.912 31.0674H268.857V33.0674H269.912V31.0674ZM315.527 45.1191H314.527V46.1191H315.527V45.1191ZM331.436 45.1191L331.449 44.1191H331.436V45.1191ZM331.567 83V84H331.576L331.585 83.9998L331.567 83ZM307.09 83H306.09V84H307.09V83ZM307.09 19.0156V18.0156H306.09V19.0156H307.09ZM315.527 19.0156H316.527V18.0156H315.527V19.0156ZM315.527 52.0625V51.0625H314.527V52.0625H315.527ZM315.527 76.1006H314.527V77.1006H315.527V76.1006ZM340.708 72.7607L340.019 72.0357L340.015 72.0401L340.708 72.7607ZM340.84 55.2705L340.157 56.0013L340.162 56.0057L340.84 55.2705ZM331.304 52.0625L331.318 51.0626L331.311 51.0625H331.304V52.0625ZM368.877 83V84H369.877V83H368.877ZM360.439 83H359.439V84H360.439V83ZM360.439 19.0156V18.0156H359.439V19.0156H360.439ZM368.877 19.0156H369.877V18.0156H368.877V19.0156ZM315.527 46.1191H331.436V44.1191H315.527V46.1191ZM331.422 46.1191C337.942 46.2048 342.897 47.8742 346.415 51.0075L347.745 49.514C343.763 45.9676 338.289 44.2092 331.449 44.1192L331.422 46.1191ZM346.415 51.0075C349.92 54.1294 351.705 58.3816 351.705 63.8838H353.705C353.705 57.9016 351.74 53.0718 347.745 49.514L346.415 51.0075ZM351.705 63.8838C351.705 69.4141 349.906 73.7296 346.364 76.9419L347.708 78.4233C351.725 74.7802 353.705 69.8964 353.705 63.8838H351.705ZM346.364 76.9419C342.81 80.1655 337.91 81.8861 331.549 82.0002L331.585 83.9998C338.291 83.8796 343.704 82.0553 347.708 78.4233L346.364 76.9419ZM331.567 82H307.09V84H331.567V82ZM308.09 83V19.0156H306.09V83H308.09ZM307.09 20.0156H315.527V18.0156H307.09V20.0156ZM314.527 19.0156V45.1191H316.527V19.0156H314.527ZM314.527 52.0625V76.1006H316.527V52.0625H314.527ZM315.527 77.1006H330.952V75.1006H315.527V77.1006ZM330.952 77.1006C335.319 77.1006 338.849 75.9367 341.401 73.4814L340.015 72.0401C337.938 74.0379 334.965 75.1006 330.952 75.1006V77.1006ZM341.397 73.4857C343.971 71.0398 345.224 67.7722 345.224 63.7959H343.224C343.224 67.3196 342.132 70.0286 340.019 72.0357L341.397 73.4857ZM345.224 63.7959C345.224 59.9663 344.015 56.838 341.518 54.5353L340.162 56.0057C342.176 57.8632 343.224 60.4185 343.224 63.7959H345.224ZM341.522 54.5398C339.058 52.2375 335.608 51.1235 331.318 51.0626L331.29 53.0624C335.261 53.1187 338.168 54.1434 340.157 56.0012L341.522 54.5398ZM331.304 51.0625H315.527V53.0625H331.304V51.0625ZM368.877 82H360.439V84H368.877V82ZM361.439 83V19.0156H359.439V83H361.439ZM360.439 20.0156H368.877V18.0156H360.439V20.0156ZM367.877 19.0156V83H369.877V19.0156H367.877Z" fill="#E5E5E5"/>
</svg>
